<?xml version="1.0" encoding="utf-8"?>
<!-- Generator: Adobe Illustrator 18.1.1, SVG Export Plug-In . SVG Version: 6.00 Build 0)  -->
<!DOCTYPE svg PUBLIC "-//W3C//DTD SVG 1.1//EN" "http://www.w3.org/Graphics/SVG/1.1/DTD/svg11.dtd">
<svg version="1.1" id="Layer_1" xmlns="http://www.w3.org/2000/svg" xmlns:xlink="http://www.w3.org/1999/xlink" x="0px" y="0px"
	 viewBox="0 0 131 20" enable-background="new 0 0 131 20" xml:space="preserve">
<path fill="#FFFFFF" d="M23.7,0.4l-7.4,19.3L11.7,7.4L7.2,19.6L0,0.4h3.3L8,12.9l4.6-12.6l4.7,12.4l4.8-12.4H23.7z"/>
<path fill="#FFFFFF" d="M21.2,19.2l8.7-18.9l8.9,18.9h-3.7l-1.6-3.4h-9l-1.6,3.4H21.2z M25,14.6h7.8l-4-8.4L25,14.6z"/>
<path fill="#FFFFFF" d="M51.8,19.2l-6-8.3h-1.4v8.3H41V0.4h3.3c3,0,8.8,0,8.8,5.3c0,2.9-1.7,4.2-3.8,4.8l6.3,8.8H51.8z M49.7,5.7
	c0-4-3.6-4-3.6-4l-1.8,0v7.9h1.8c0.5,0,1.3,0,2.1-0.4l0.1,0C49.1,8.6,49.7,7.7,49.7,5.7z"/>
<path fill="#FFFFFF" d="M70,19.2H57.9V0.4H70v1.3h-8.8v7h7.3v1.5h-7.3V18H70V19.2z"/>
<path fill="#FFFFFF" d="M93,0.4v18.9h-3.4V4l-7.4,15.7l-7.1-15v14.6h-1.5V0.4h3.2l6.4,13.5l6.4-13.5H93z"/>
<path fill="#FFFFFF" d="M99.8,19.2h-3.1V0.4h3.1V19.2z"/>
<path fill="#FFFFFF" d="M115.8,17.7v1.5h-12.4V0.4h3.1v17.3H115.8z"/>
<path fill="#FFFFFF" d="M130.9,17.7v1.5h-12.4V0.4h3.1v17.3H130.9z"/>
</svg>
